<?xml version="1.0" encoding="UTF-8"?>
<svg version="1.1" xmlns="http://www.w3.org/2000/svg" width="1000" height="571">
<path d="M0 0 C1.19459839 0.00930542 1.19459839 0.00930542 2.41333008 0.01879883 C3.31281372 0.03076294 3.31281372 0.03076294 4.23046875 0.04296875 C4.29924294 40.2308625 4.35205229 80.41874853 4.38366474 120.60668944 C4.38741654 125.35896819 4.39129953 130.11124682 4.39526367 134.86352539 C4.3960506 135.80955699 4.39683753 136.75558859 4.39764831 137.73028781 C4.41067674 153.01727175 4.43431635 168.3042216 4.46192714 183.59118537 C4.49005286 199.29505732 4.50666011 214.9989115 4.51273423 230.70280761 C4.51683586 240.38088246 4.52975657 250.05886092 4.55421815 259.73690607 C4.57016397 266.38742665 4.57484926 273.03789792 4.57097288 279.68843619 C4.56906499 283.51658467 4.57183961 287.34456558 4.58808517 291.17268372 C4.73052123 326.51390549 -0.04048337 368.22278989 -24.76953125 396.04296875 C-25.42953125 396.04296875 -26.08953125 396.04296875 -26.76953125 396.04296875 C-27.01703125 396.76484375 -27.26453125 397.48671875 -27.51953125 398.23046875 C-28.89222717 401.31903457 -30.49306421 403.55308293 -32.76953125 406.04296875 C-33.42953125 406.04296875 -34.08953125 406.04296875 -34.76953125 406.04296875 C-35.07890625 406.83960938 -35.07890625 406.83960938 -35.39453125 407.65234375 C-37.34914317 411.05070311 -39.99076842 413.55352803 -42.76953125 416.29296875 C-43.31609375 416.84726562 -43.86265625 417.4015625 -44.42578125 417.97265625 C-48.51614455 422.04296875 -48.51614455 422.04296875 -50.76953125 422.04296875 C-50.76953125 422.70296875 -50.76953125 423.36296875 -50.76953125 424.04296875 C-52.16796875 425.32055664 -52.16796875 425.32055664 -54.14453125 426.765625 C-54.87446289 427.29986084 -55.60439453 427.83409668 -56.35644531 428.38452148 C-57.15276367 428.95243408 -57.94908203 429.52034668 -58.76953125 430.10546875 C-59.58389648 430.68820557 -60.39826172 431.27094238 -61.23730469 431.87133789 C-83.69851273 447.69746847 -110.79311666 460.01700253 -138.76953125 459.04296875 C-138.76953125 459.70296875 -138.76953125 460.36296875 -138.76953125 461.04296875 C-143.24868453 461.07183213 -147.72781416 461.08972062 -152.20703125 461.10546875 C-153.48642578 461.11384766 -154.76582031 461.12222656 -156.08398438 461.13085938 C-157.90639648 461.13569336 -157.90639648 461.13569336 -159.765625 461.140625 C-160.89154053 461.14586182 -162.01745605 461.15109863 -163.17749023 461.15649414 C-165.76953125 461.04296875 -165.76953125 461.04296875 -166.76953125 460.04296875 C-168.1304576 459.82911426 -169.50010974 459.6702752 -170.87109375 459.53515625 C-203.47215348 455.9563661 -235.03417846 443.35161857 -258.76953125 420.04296875 C-258.76953125 419.38296875 -258.76953125 418.72296875 -258.76953125 418.04296875 C-259.63578125 417.67171875 -259.63578125 417.67171875 -260.51953125 417.29296875 C-263.09893104 415.85996887 -264.83074717 414.25872199 -266.76953125 412.04296875 C-266.76953125 411.38296875 -266.76953125 410.72296875 -266.76953125 410.04296875 C-267.42953125 410.04296875 -268.08953125 410.04296875 -268.76953125 410.04296875 C-287.57208667 390.20686905 -299.57895534 365.41775393 -305.76953125 339.04296875 C-305.93614258 338.33817383 -306.10275391 337.63337891 -306.27441406 336.90722656 C-314.27788943 301.16499806 -308.59468241 260.87684882 -290.76953125 229.04296875 C-290.21652344 228.00269531 -289.66351562 226.96242187 -289.09375 225.890625 C-277.93890621 205.63087291 -260.15569678 186.47421049 -240.76953125 174.04296875 C-239.67125 173.33398438 -238.57296875 172.625 -237.44140625 171.89453125 C-207.11144177 152.77748764 -173.94747106 146.61794296 -138.53515625 146.84765625 C-136.79254319 146.85140225 -135.04992797 146.85424167 -133.30731201 146.85623169 C-128.79642566 146.86374357 -124.28567521 146.88327937 -119.77484131 146.90563965 C-115.14157956 146.92637196 -110.5082951 146.93529096 -105.875 146.9453125 C-96.83978515 146.96654168 -87.80466965 147.00051998 -78.76953125 147.04296875 C-78.7564952 148.47873548 -78.74721079 149.91453658 -78.73950195 151.3503418 C-78.73392776 152.14989792 -78.72835358 152.94945404 -78.72261047 153.77323914 C-78.96879169 165.68192521 -85.03394358 180.05970564 -92.76953125 189.04296875 C-93.42953125 189.04296875 -94.08953125 189.04296875 -94.76953125 189.04296875 C-95.01703125 189.62046875 -95.26453125 190.19796875 -95.51953125 190.79296875 C-96.95253113 193.37236854 -98.55377801 195.10418467 -100.76953125 197.04296875 C-101.42953125 197.04296875 -102.08953125 197.04296875 -102.76953125 197.04296875 C-102.76953125 197.70296875 -102.76953125 198.36296875 -102.76953125 199.04296875 C-118.05319603 210.26880838 -133.84277108 213.16502486 -152.51953125 213.41796875 C-179.79839203 214.12736923 -200.84802506 223.63885276 -219.9609375 243.296875 C-237.36486724 262.2859824 -243.8151599 285.70023228 -242.76953125 311.04296875 C-241.00338552 331.65641252 -233.54836725 349.60556916 -219.76953125 365.04296875 C-219.0321875 365.87441406 -218.29484375 366.70585937 -217.53515625 367.5625 C-211.05081638 374.46005761 -203.88516761 379.30884754 -195.76953125 384.04296875 C-194.90328125 384.54828125 -194.03703125 385.05359375 -193.14453125 385.57421875 C-174.14448183 395.82424541 -148.76161736 397.02102716 -127.984375 392.01953125 C-122.705154 390.41587967 -117.73265375 388.44933117 -112.76953125 386.04296875 C-111.83367187 385.58921875 -110.8978125 385.13546875 -109.93359375 384.66796875 C-100.51587975 379.81402092 -87.66921308 371.84233241 -82.76953125 362.04296875 C-82.10953125 362.04296875 -81.44953125 362.04296875 -80.76953125 362.04296875 C-80.5065625 361.30949219 -80.24359375 360.57601563 -79.97265625 359.8203125 C-78.76271853 357.02724198 -77.36987084 355.01007674 -75.51953125 352.60546875 C-64.61368932 337.26912853 -61.59853761 318.86207977 -61.6449585 300.43188477 C-61.64354835 299.38686546 -61.6421382 298.34184616 -61.64068532 297.26515961 C-61.63704567 293.77571771 -61.64036314 290.28631681 -61.64355469 286.796875 C-61.64215919 284.28966744 -61.6402594 281.78246012 -61.63789368 279.2752533 C-61.63398343 274.57844052 -61.63156424 269.88163544 -61.63147768 265.18482119 C-61.63127427 255.94610781 -61.61877511 246.7074465 -61.60186768 237.46875 C-61.59926201 236.01119933 -61.59666319 234.55364864 -61.59407115 233.09609795 C-61.59013285 230.88740406 -61.58618626 228.67871018 -61.58220993 226.47001636 C-61.56727853 218.15205071 -61.55364744 209.83408348 -61.54150391 201.51611328 C-61.54039035 200.75624626 -61.53927678 199.99637925 -61.53812948 199.21348596 C-61.52057603 186.91576299 -61.51768412 174.61807296 -61.51935431 162.32033956 C-61.5206369 149.66833402 -61.50280881 137.01645022 -61.46833634 124.36449146 C-61.44777404 116.57599383 -61.44228211 108.78778883 -61.45666465 100.99927598 C-61.46618654 95.01655667 -61.4493885 89.0341968 -61.42317772 83.05151558 C-61.41656825 80.6103755 -61.41835009 78.16919488 -61.42947578 75.72807121 C-61.51916129 54.25619103 -58.72014682 35.74065282 -43.01953125 19.73046875 C-31.69197817 8.6927766 -16.19699875 -0.16451245 0 0 Z " fill="#000000" transform="translate(981.76953125,22.95703125)"/>
<path d="M0 0 C12.97026673 10.68693484 21.4522008 22.7320011 29.6875 37.25 C31.00635577 39.55607804 32.32536733 41.86206698 33.64453125 44.16796875 C34.28729004 45.29509277 34.93004883 46.4222168 35.59228516 47.58349609 C38.16648571 52.08817676 40.76929062 56.57599878 43.375 61.0625 C46.43681251 66.34292081 49.48069211 71.63266023 52.5 76.9375 C55.71926518 82.58259531 58.99951965 88.18926139 62.30053711 93.78686523 C70.44983844 107.61006185 78.55273109 121.4608086 86.484375 135.41015625 C90.40851713 142.24601184 94.42823663 149.0263288 98.4375 155.8125 C101.38176817 152.30928029 103.70475203 148.78218122 105.8984375 144.76953125 C106.21148834 144.20102951 106.52453918 143.63252777 106.84707642 143.04679871 C107.84006663 141.24196709 108.82665988 139.43374546 109.8125 137.625 C113.74156332 130.44480262 117.69035748 123.29263773 121.94042969 116.2956543 C124.82515395 111.51083197 127.58977057 106.65566957 130.375 101.8125 C131.3601204 100.10205223 132.34524245 98.39160542 133.33045959 96.68121338 C134.34945744 94.91196538 135.36808779 93.14250612 136.38671875 91.37304688 C138.41152548 87.85660684 140.43973346 84.34213718 142.46875 80.828125 C143.11948486 79.70075928 143.77021973 78.57339355 144.44067383 77.41186523 C145.71815222 75.19985892 146.99661639 72.9884216 148.27612305 70.77758789 C150.90064376 66.23782905 153.51674134 61.69647011 156.05078125 57.10546875 C156.42146729 56.43805664 156.79215332 55.77064453 157.17407227 55.08300781 C158.09769555 53.41243117 159.01038339 51.73582043 159.921875 50.05859375 C161.4375 47.8125 161.4375 47.8125 164.4375 46.8125 C164.77370361 47.40973877 165.10990723 48.00697754 165.45629883 48.62231445 C172.53254062 61.18561659 179.66629988 73.71159881 186.90966797 86.17919922 C189.90623255 91.34393965 192.89043885 96.51581689 195.875 101.6875 C196.51171631 102.79029297 197.14843262 103.89308594 197.80444336 105.02929688 C201.34095332 111.15966843 204.85800488 117.30054326 208.35571289 123.453125 C212.71396406 131.11770813 217.14378162 138.71173034 221.8125 146.19140625 C223.77335762 149.35423188 225.6240585 152.5634173 227.4375 155.8125 C229.83739119 152.75702437 231.78834542 149.58966816 233.703125 146.2109375 C234.65566162 144.53596191 234.65566162 144.53596191 235.62744141 142.82714844 C235.96269836 142.23478394 236.29795532 141.64241943 236.64337158 141.03210449 C238.06930737 138.51298183 239.50147462 135.99742219 240.93338013 133.48168945 C241.67411698 132.18025298 242.41457247 130.87865633 243.15475464 129.5769043 C246.76735319 123.22528316 250.40962999 116.89105754 254.0625 110.5625 C254.67391846 109.50305176 255.28533691 108.44360352 255.9152832 107.35205078 C260.80507392 98.88882713 265.72914654 90.44580625 270.66064453 82.00683594 C274.22733397 75.89978391 277.75415553 69.77286441 281.25 63.625 C284.88096034 57.27081941 288.59207222 50.96241241 292.29150391 44.64794922 C295.19989243 39.67771958 298.07526319 34.69635586 300.85888672 29.65527344 C311.80770231 9.93282938 327.24768015 -3.81815154 348.4375 -11.1875 C349.20578125 -11.45691406 349.9740625 -11.72632813 350.765625 -12.00390625 C367.84035369 -16.81037515 386.14240299 -11.94634339 401.4375 -4.1875 C400.88037224 0.53011412 398.75028065 4.0311975 396.3125 8 C395.39707178 9.52261723 394.4831044 11.04611336 393.5703125 12.5703125 C393.06918945 13.4046582 392.56806641 14.23900391 392.05175781 15.09863281 C389.04190282 20.15875805 386.12084479 25.27027706 383.1875 30.375 C378.85365079 37.90580773 374.50090765 45.42451865 370.10693359 52.92041016 C364.02993182 63.28746336 358.10692613 73.72926356 352.26538086 84.23071289 C348.86461459 90.32477446 345.34638688 96.28461046 341.625 102.1875 C338.38244056 107.45665908 335.44250687 112.90600228 332.4375 118.3125 C325.15091463 131.4222561 325.15091463 131.4222561 321.4375 137.3125 C317.67356752 143.29475014 314.24792734 149.44916588 310.8125 155.625 C304.42697883 167.100268 297.86193483 178.45991328 291.21386719 189.78466797 C288.15550937 194.99766324 285.10863906 200.21735807 282.0625 205.4375 C281.47388184 206.44611084 280.88526367 207.45472168 280.27880859 208.49389648 C275.95514565 215.90931669 271.67606119 223.34813118 267.4375 230.8125 C262.60209515 239.32794747 257.69611468 247.79836695 252.75 256.25 C246.30959935 267.2601925 240.01161397 278.34669602 233.76074219 289.46533203 C231.9998156 292.58886491 230.22110027 295.70186699 228.4375 298.8125 C225.36902925 296.15001153 223.70509234 292.96697705 221.75 289.4375 C218.48385518 283.5981442 215.06160995 277.89880312 211.4921875 272.23828125 C209.25433913 268.50711582 207.18652749 264.70498523 205.11523438 260.87963867 C202.07062987 255.31366567 198.90431558 249.81677693 195.75 244.3125 C195.04097595 243.07342765 194.33199207 241.83433231 193.62304688 240.59521484 C189.14310816 232.76922243 184.64027151 224.95666714 180.11425781 217.15722656 C176.18977693 210.39388749 172.30868349 203.60647014 168.4375 196.8125 C168.07124512 196.19439453 167.70499023 195.57628906 167.32763672 194.93945312 C164.4375 190.02406483 164.4375 190.02406483 164.4375 187.8125 C161.82037714 190.17521395 160.26428251 192.64685853 158.57421875 195.73046875 C158.02403076 196.72570557 157.47384277 197.72094238 156.90698242 198.74633789 C156.31892822 199.82004639 155.73087402 200.89375488 155.125 202 C153.86640564 204.27444685 152.605939 206.5478585 151.34375 208.8203125 C151.0214592 209.40085892 150.6991684 209.98140533 150.36711121 210.57954407 C147.03757464 216.56106058 143.5904956 222.47156027 140.125 228.375 C136.25640297 234.96983949 132.41248023 241.57286397 128.6875 248.25 C122.16144508 259.9372424 115.32223171 271.42411596 108.2578125 282.79296875 C105.91592285 286.67769128 103.76953786 290.65109817 101.6640625 294.66796875 C100.4375 296.8125 100.4375 296.8125 98.4375 298.8125 C98.15664551 298.32595947 97.87579102 297.83941895 97.58642578 297.33813477 C92.65044133 288.79077184 87.70730679 280.24846332 82.6875 271.75 C77.81515927 263.49524047 73.03119157 255.19019324 68.24926758 246.8828125 C64.55901229 240.47607434 60.84618485 234.08347652 57.10717773 227.70507812 C51.05543547 217.38086553 45.15264714 206.98408624 39.33129883 196.52832031 C36.0000101 190.55911628 32.59896516 184.65728697 29.03857422 178.82177734 C25.15000092 172.41221476 21.45888623 165.88943997 17.75 159.375 C10.39981707 146.46924155 2.94345527 133.62838249 -4.5625 120.8125 C-12.30667369 107.58987658 -19.99409399 94.33775186 -27.58145142 81.02459717 C-32.78064719 71.9037428 -38.03862031 62.81887115 -43.33935547 53.7565918 C-49.52094109 43.18504455 -55.6421205 32.57905256 -61.74755859 21.96337891 C-63.55198612 18.8307529 -65.36336767 15.70222962 -67.17578125 12.57421875 C-68.28404129 10.6537538 -69.3921235 8.73318623 -70.5 6.8125 C-71.01449707 5.92796143 -71.52899414 5.04342285 -72.05908203 4.13208008 C-72.5229834 3.32536865 -72.98688477 2.51865723 -73.46484375 1.6875 C-73.87210693 0.98367187 -74.27937012 0.27984375 -74.69897461 -0.4453125 C-75.5625 -2.1875 -75.5625 -2.1875 -75.5625 -4.1875 C-49.87212884 -15.93058386 -23.93222182 -17.70560835 0 0 Z " fill="#000000" transform="translate(89.5625,183.1875)"/>
<path d="M0 0 C2.22653588 -0.01697342 4.45310948 -0.0290419 6.6796875 -0.0390625 C7.91960449 -0.04631348 9.15952148 -0.05356445 10.43701172 -0.06103516 C23.53425712 0.16332495 34.41965465 5.63581432 43.8125 14.65234375 C52.9983346 24.51071267 56.63020296 35.46077331 56.48101807 48.80082703 C56.48443577 49.93728615 56.48785347 51.07374528 56.49137473 52.24464256 C56.49792496 56.02492991 56.4760238 59.80449566 56.45410156 63.5847168 C56.45073984 66.30552108 56.45343233 69.02631164 56.45587158 71.74711609 C56.45796164 77.59052078 56.44548898 83.43374582 56.42292023 89.27710533 C56.39031171 97.7254282 56.3799842 106.17366485 56.37496826 114.62204383 C56.36622944 128.33133032 56.33965235 142.04052122 56.30175781 155.74975586 C56.26500106 169.06127446 56.23670727 182.37276702 56.21972656 195.68432617 C56.21867567 196.50584699 56.21762477 197.32736781 56.21654204 198.17378321 C56.21132161 202.29540973 56.20626684 206.41703644 56.20129442 210.53866327 C56.15987641 244.69251095 56.08946663 278.84624514 56 313 C53.13525868 313.04242804 50.27115567 313.07329954 47.40625 313.09765625 C46.60219727 313.11074829 45.79814453 313.12384033 44.96972656 313.1373291 C31.38719673 313.22377596 21.57942867 307.26696059 11.75 298.3125 C2.4085323 288.59283523 -0.31251754 276.69202112 -0.24050903 263.71815491 C-0.24221788 262.58919703 -0.24392673 261.46023916 -0.24568737 260.29707044 C-0.24897867 256.51837605 -0.23798427 252.73985965 -0.22705078 248.96118164 C-0.22537235 246.25082283 -0.22671534 243.54046749 -0.22793579 240.83010864 C-0.22898313 234.99705733 -0.2227223 229.16405085 -0.21146011 223.33101082 C-0.19518763 214.89748055 -0.18999532 206.4639719 -0.18748413 198.03042763 C-0.18310977 184.34668882 -0.1698077 170.66297389 -0.15087891 156.97924805 C-0.1325134 143.68888468 -0.11836018 130.3985278 -0.10986328 117.1081543 C-0.10933783 116.28856958 -0.10881239 115.46898486 -0.10827102 114.62456424 C-0.10566089 110.51283912 -0.10313349 106.40111397 -0.10064721 102.28938878 C-0.07992278 68.19290853 -0.0447043 34.0964572 0 0 Z " fill="#000000" transform="translate(595,169)"/>
<path d="M0 0 C1.89153809 0.00422974 1.89153809 0.00422974 3.82128906 0.00854492 C5.2632666 0.01398315 5.2632666 0.01398315 6.734375 0.01953125 C6.85138482 24.28983624 6.93944956 48.56009871 6.99343586 72.83062935 C7.0191734 84.10088681 7.05423867 95.3709686 7.11157227 106.64111328 C7.16154364 116.46877569 7.19369833 126.29631081 7.20481747 136.12409675 C7.211313 141.3237172 7.22648604 146.52297364 7.26302528 151.72247696 C7.29720206 156.62596971 7.30738454 161.52895178 7.29991341 166.43255234 C7.30127833 168.22308893 7.31108073 170.01364429 7.33040237 171.80407715 C7.51248165 189.5615882 3.33449774 203.00604325 -9.078125 216.26953125 C-20.55544125 227.23821884 -34.14886738 231.22567808 -49.640625 231.08203125 C-50.56746094 231.07751953 -51.49429687 231.07300781 -52.44921875 231.06835938 C-54.72142209 231.05664699 -56.99348888 231.04024497 -59.265625 231.01953125 C-59.33576222 206.94087204 -59.3886363 182.86222818 -59.42106152 158.78348732 C-59.43651848 147.60285651 -59.45758567 136.42228924 -59.49194336 125.24169922 C-59.5218815 115.49464766 -59.54120851 105.74764212 -59.54789048 96.00054586 C-59.55179525 90.84139709 -59.56094769 85.68237997 -59.58281517 80.52327347 C-59.60325003 75.66255902 -59.60944467 70.80202988 -59.60494804 65.94127655 C-59.60577012 64.16197832 -59.61169391 62.38267358 -59.62324142 60.60341263 C-59.72965511 43.35393819 -59.72965511 43.35393819 -56.265625 35.01953125 C-55.8634375 34.04242188 -55.46125 33.0653125 -55.046875 32.05859375 C-47.25715101 17.38161379 -35.7611132 7.20154357 -19.890625 2.08203125 C-13.17122194 0.38587125 -6.90830584 -0.02003569 0 0 Z " fill="#000000" transform="translate(560.265625,249.98046875)"/>
<path d="M0 0 C0.68794405 25.10466587 0.00801321 45.71238793 -18 65 C-30.76294128 77.15330926 -45.32977756 83.34723145 -63 83 C-63.05883232 78.72922608 -63.09387308 74.45855861 -63.125 70.1875 C-63.14175781 68.99189453 -63.15851563 67.79628906 -63.17578125 66.56445312 C-63.27190599 48.92556388 -58.76762433 32.95609043 -46.671875 19.64453125 C-36.39638759 9.53710087 -24.14950282 3.41712926 -10 1 C-8.96746094 0.81179687 -7.93492187 0.62359375 -6.87109375 0.4296875 C-4 0 -4 0 0 0 Z " fill="#9412E1" transform="translate(563,168)"/>
</svg>
