<?xml version="1.0" encoding="UTF-8"?>
<svg version="1.1" xmlns="http://www.w3.org/2000/svg" width="300" height="300">
<path d="M0 0 C1.11310547 0.00451172 2.22621094 0.00902344 3.37304688 0.01367188 C6.10292101 0.02538807 8.83268174 0.04179301 11.5625 0.0625 C11.60890141 13.59734867 11.64440891 27.13217832 11.66612434 40.66709042 C11.67654821 46.95232395 11.690682 53.23750293 11.71337891 59.52270508 C11.73515694 65.59164018 11.74707913 71.66052292 11.75225449 77.72949409 C11.75594132 80.04145697 11.76314076 82.35341709 11.77396011 84.66535759 C11.78854081 87.9110006 11.79047517 91.15642896 11.78955078 94.40209961 C11.79674133 95.35156967 11.80393188 96.30103973 11.81134033 97.27928162 C11.79559248 102.41065731 11.32879892 107.06878934 10.0656414 112.04815006 C9.54203553 114.14443044 9.16101078 116.23601357 8.80859375 118.3671875 C5.37030821 138.19441665 -0.80364593 158.33196167 -10.4375 176.0625 C-10.83694824 176.79871582 -11.23639648 177.53493164 -11.64794922 178.29345703 C-26.5410994 205.41257477 -46.46283697 230.67087911 -70.79296875 249.96484375 C-72.42488131 251.25928547 -74.03678635 252.58001658 -75.61328125 253.94140625 C-84.41914461 261.43342854 -94.51678679 267.18933005 -104.4375 273.0625 C-105.12537598 273.47064941 -105.81325195 273.87879883 -106.52197266 274.29931641 C-128.13356509 286.93942118 -152.93503917 293.71992772 -177.4375 298.0625 C-178.86835938 298.36994141 -178.86835938 298.36994141 -180.328125 298.68359375 C-188.19182541 300.20797418 -195.89739267 300.15938034 -203.88671875 300.11328125 C-205.0943689 300.10961548 -206.30201904 300.10594971 -207.54626465 300.10217285 C-210.51004395 300.09264773 -213.47375458 300.07931448 -216.4375 300.0625 C-216.46063205 287.44981588 -216.47841951 274.83713678 -216.48931217 262.22443581 C-216.4945391 256.36836627 -216.50163333 250.51231121 -216.51293945 244.65625 C-216.52377504 239.0088016 -216.52977827 233.36136714 -216.53237724 227.71390915 C-216.53423027 225.55525874 -216.53784857 223.39660913 -216.54323006 221.23796463 C-216.55044936 218.22324195 -216.55149056 215.20857753 -216.55102539 212.19384766 C-216.55462067 211.29401657 -216.55821594 210.39418549 -216.56192017 209.46708679 C-216.55155216 203.29060432 -216.55155216 203.29060432 -215.4375 201.0625 C-215.15965038 199.32694925 -214.92464678 197.58445407 -214.7109375 195.83984375 C-211.86194129 173.92912446 -207.24013456 152.96497665 -197.4375 133.0625 C-196.791536 131.71751067 -196.14570583 130.37245705 -195.5 129.02734375 C-193.54689497 125.00302558 -191.51047013 121.02618994 -189.4375 117.0625 C-188.83421875 115.90105469 -188.2309375 114.73960938 -187.609375 113.54296875 C-160.28389697 63.3123106 -109.28714433 25.08015215 -55.15722656 8.84667969 C-48.64051636 6.96771441 -42.08712578 5.39113208 -35.4375 4.0625 C-34.72561523 3.91973633 -34.01373047 3.77697266 -33.28027344 3.62988281 C-28.6755567 2.71795627 -24.06468481 1.85385949 -19.4375 1.0625 C-18.46506348 0.88614014 -17.49262695 0.70978027 -16.49072266 0.52807617 C-11.02488889 -0.24455272 -5.50699008 -0.04248716 0 0 Z " fill="#9412E1" transform="translate(252.4375,-0.0625)"/>
<path d="M0 0 C8.24176669 5.02655969 12.42042679 13.77531535 17 21.9375 C18.31749441 24.25942246 19.63962609 26.57868234 20.9609375 28.8984375 C21.59612305 30.01702148 22.23130859 31.13560547 22.88574219 32.28808594 C25.24524102 36.41241316 27.6671638 40.49618563 30.125 44.5625 C30.4960083 45.17673828 30.8670166 45.79097656 31.24926758 46.42382812 C32.06000101 47.76293815 32.87336056 49.10045799 33.6875 50.4375 C34.08018066 49.7576001 34.47286133 49.0777002 34.87744141 48.37719727 C36.68607613 45.24968889 38.49925507 42.12483758 40.3125 39 C40.92996094 37.93072266 41.54742187 36.86144531 42.18359375 35.75976562 C45.81808442 29.50461589 49.57969251 23.3935352 53.6875 17.4375 C55.94552008 19.53220671 57.45700279 21.54239767 58.921875 24.24609375 C59.53119873 25.35911865 59.53119873 25.35911865 60.15283203 26.49462891 C60.57677246 27.28015137 61.00071289 28.06567383 61.4375 28.875 C62.32449942 30.49665285 63.21252499 32.11774484 64.1015625 33.73828125 C64.53758789 34.53443848 64.97361328 35.3305957 65.42285156 36.15087891 C68.0860122 40.96616125 70.88388384 45.70291642 73.6875 50.4375 C78.49138927 43.53850793 82.63381544 36.35947317 86.6875 29 C90.08181156 22.85985343 93.47813736 16.72050453 97 10.65234375 C97.70576172 9.43019165 97.70576172 9.43019165 98.42578125 8.18334961 C99.05033203 7.31915405 99.05033203 7.31915405 99.6875 6.4375 C100.3475 6.4375 101.0075 6.4375 101.6875 6.4375 C101.6875 5.7775 101.6875 5.1175 101.6875 4.4375 C103.078125 3.18359375 103.078125 3.18359375 104.9375 1.875 C105.54078125 1.44058594 106.1440625 1.00617188 106.765625 0.55859375 C111.63555825 -2.28220064 117.21188998 -1.94287356 122.6875 -1.5625 C125.8125 -0.5625 125.8125 -0.5625 127.6875 0.4375 C127.1447251 5.55365601 124.65343663 9.30662056 122.0625 13.625 C121.05414342 15.3356169 120.0463621 17.04657299 119.0390625 18.7578125 C118.49668945 19.6746582 117.95431641 20.59150391 117.39550781 21.53613281 C114.37334359 26.66983773 111.4091553 31.8369521 108.4375 37 C107.15644047 39.22146401 105.87518811 41.44281684 104.59375 43.6640625 C103.2916486 45.92186458 101.98956534 48.17967712 100.6875 50.4375 C92.03304938 65.44459377 83.37373613 80.44877653 74.6875 95.4375 C71.63979659 92.78365365 69.95754627 89.63111228 68 86.125 C67.65622314 85.51487061 67.31244629 84.90474121 66.95825195 84.27612305 C65.49312833 81.67548704 64.03960581 79.06842123 62.58496094 76.46191406 C61.51895452 74.55567738 60.44712953 72.6527975 59.375 70.75 C58.73949219 69.61175781 58.10398437 68.47351563 57.44921875 67.30078125 C56.00130946 64.94752735 54.75171008 63.23495062 52.6875 61.4375 C52.42251709 62.31003418 52.15753418 63.18256836 51.88452148 64.08154297 C50.71034715 67.37344598 49.30194564 70.12367345 47.53515625 73.1328125 C46.92349609 74.17824219 46.31183594 75.22367187 45.68164062 76.30078125 C45.04419922 77.37714844 44.40675781 78.45351562 43.75 79.5625 C43.11642578 80.64660156 42.48285156 81.73070312 41.83007812 82.84765625 C36.70560244 91.56626998 36.70560244 91.56626998 33.6875 95.4375 C26.25155378 83.70153376 19.40821582 71.61948067 12.49023438 59.57421875 C10.04286052 55.31584127 7.58605007 51.06298476 5.125 46.8125 C4.69832031 46.07499512 4.27164063 45.33749023 3.83203125 44.57763672 C1.26887845 40.15201496 -1.30714446 35.73410016 -3.890625 31.3203125 C-4.50993896 30.26150879 -5.12925293 29.20270508 -5.76733398 28.11181641 C-6.96589594 26.06375456 -8.16582794 24.01649358 -9.36743164 21.97021484 C-20.3125 3.26756141 -20.3125 3.26756141 -20.3125 0.4375 C-13.80667858 -2.49305019 -6.61659218 -2.96474226 0 0 Z " fill="#FEFEFE" transform="translate(102.3125,112.5625)"/>
</svg>
